HIERARCHY
ROOT SimulationBone
{
	OFFSET 0.000000 0.000000 0.000000
	CHANNELS 6 Xposition Yposition Zposition Zrotation Yrotation Xrotation 
	JOINT Hips
	{
		OFFSET 0.000000 0.000000 0.000000
		CHANNELS 6 Xposition Yposition Zposition Zrotation Yrotation Xrotation 
		JOINT LeftUpLeg
		{
			OFFSET 0.103462 1.857825 10.548491
			CHANNELS 3 Zrotation Yrotation Xrotation
			JOINT LeftLeg
			{
				OFFSET 43.500000 -0.000038 -0.000006
				CHANNELS 3 Zrotation Yrotation Xrotation
				JOINT LeftFoot
				{
					OFFSET 42.372196 0.000034 -0.000012
					CHANNELS 3 Zrotation Yrotation Xrotation
					JOINT LeftToe
					{
						OFFSET 17.299999 -0.000001 -0.000008
						CHANNELS 3 Zrotation Yrotation Xrotation
						End Site
						{
							OFFSET 0.000000 0.000000 0.000000
						}
					}
				}
			}
		}
		JOINT RightUpLeg
		{
			OFFSET 0.103456 1.857821 -10.548490
			CHANNELS 3 Zrotation Yrotation Xrotation
			JOINT RightLeg
			{
				OFFSET 43.500038 -0.000011 0.000011
				CHANNELS 3 Zrotation Yrotation Xrotation
				JOINT RightFoot
				{
					OFFSET 42.372265 0.000004 0.000029
					CHANNELS 3 Zrotation Yrotation Xrotation
					JOINT RightToe
					{
						OFFSET 17.299988 -0.000007 0.000004
						CHANNELS 3 Zrotation Yrotation Xrotation
						End Site
						{
							OFFSET 0.000000 0.000000 0.000000
						}
					}
				}
			}
		}
		JOINT Spine
		{
			OFFSET 6.901963 -2.603729 -0.000012
			CHANNELS 3 Zrotation Yrotation Xrotation
			JOINT Spine1
			{
				OFFSET 12.588106 0.000010 0.000003
				CHANNELS 3 Zrotation Yrotation Xrotation
				JOINT Spine2
				{
					OFFSET 12.343199 -0.000001 -0.000002
					CHANNELS 3 Zrotation Yrotation Xrotation
					JOINT Neck
					{
						OFFSET 25.832895 -0.000006 0.000023
						CHANNELS 3 Zrotation Yrotation Xrotation
						JOINT Head
						{
							OFFSET 11.766605 0.000011 -0.000027
							CHANNELS 3 Zrotation Yrotation Xrotation
							End Site
							{
								OFFSET 0.000000 0.000000 0.000000
							}
						}
					}
					JOINT LeftShoulder
					{
						OFFSET 19.745903 -1.480368 6.000127
						CHANNELS 3 Zrotation Yrotation Xrotation
						JOINT LeftArm
						{
							OFFSET 11.284108 0.000010 -0.000010
							CHANNELS 3 Zrotation Yrotation Xrotation
							JOINT LeftForeArm
							{
								OFFSET 33.000069 0.000000 0.000030
								CHANNELS 3 Zrotation Yrotation Xrotation
								JOINT LeftHand
								{
									OFFSET 25.199997 0.000019 0.000001
									CHANNELS 3 Zrotation Yrotation Xrotation
									End Site
									{
										OFFSET 0.000000 0.000000 0.000000
									}
								}
							}
						}
					}
					JOINT RightShoulder
					{
						OFFSET 19.746101 -1.480371 -6.000072
						CHANNELS 3 Zrotation Yrotation Xrotation
						JOINT RightArm
						{
							OFFSET 11.284140 -0.000007 -0.000004
							CHANNELS 3 Zrotation Yrotation Xrotation
							JOINT RightForeArm
							{
								OFFSET 33.000080 0.000016 -0.000002
								CHANNELS 3 Zrotation Yrotation Xrotation
								JOINT RightHand
								{
									OFFSET 25.199766 0.000146 0.000422
									CHANNELS 3 Zrotation Yrotation Xrotation
									End Site
									{
										OFFSET 0.000000 0.000000 0.000000
									}
								}
							}
						}
					}
				}
			}
		}
	}
}
MOTION
Frames: 8
Frame Time: 0.016667
-151.313509 0.000000 283.822654 0.000000 37.587080 0.000000 1.570298 91.103903 -1.932244 97.636318 -1.580562 179.041688 167.142365 -2.249454 179.747525 -35.387725 0.505683 -5.531667 72.034439 2.088430 -6.043115 21.454552 0.003098 -0.000000 -177.414863 4.791471 -178.509218 -14.960594 8.389606 -2.077411 77.415355 -0.327638 -5.679952 21.454560 -0.003116 -0.000019 8.596456 1.232925 0.923018 7.201826 2.406086 1.921224 6.883620 2.417781 1.906665 7.194746 0.383662 5.830456 -24.441813 4.465411 4.227589 -165.612246 -75.076801 -16.201666 4.415433 66.360356 33.734855 -25.576840 -13.603727 1.060101 13.623918 1.829851 41.573862 -169.930873 73.873071 11.739496 -25.560529 -53.864145 -9.866925 -34.752877 14.895680 -1.349603 7.646976 1.427017 -12.348560 
-151.765970 0.000000 284.304994 0.000000 38.220602 0.000000 1.591867 91.052391 -1.942913 97.615783 -1.404915 178.844225 167.724734 -2.263307 -179.377228 -37.828773 0.536640 -5.564730 72.668294 2.194913 -5.856314 21.454548 0.003098 0.000000 -177.721754 4.617704 -178.637696 -14.725492 8.495879 -1.745455 77.070009 -0.556572 -5.602103 21.454558 -0.003106 -0.000018 8.570731 1.284153 0.951752 7.152010 2.507114 1.981335 6.833783 2.519168 1.966164 7.419696 1.282664 6.681269 -24.523943 3.445716 5.674524 -164.949791 -74.598892 -16.882895 7.152211 65.876495 35.547980 -23.892031 -13.171957 1.008621 15.911585 3.089283 46.681736 -168.667381 73.723596 13.035209 -24.432740 -54.099826 -10.874626 -34.353033 14.822142 -1.335945 7.542079 1.455634 -11.913055 
-152.223290 0.000000 284.783815 0.000000 38.938102 0.000000 1.614585 90.991275 -1.930142 97.629799 -1.169343 178.606720 168.438057 -2.301325 -178.496982 -40.079756 0.578570 -5.577909 73.174319 2.381474 -5.336709 21.454551 0.003093 -0.000001 -178.182215 4.357609 -179.230255 -14.802861 8.648602 -1.128850 76.903337 -0.956040 -5.456344 21.454558 -0.003100 -0.000017 8.557701 1.340921 0.985156 7.127881 2.618710 2.051366 6.809633 2.631184 2.035519 7.654475 2.184382 7.593045 -24.619739 2.474720 7.162250 -163.919039 -74.114605 -17.942721 10.091101 65.306796 37.729543 -23.319061 -13.246410 1.006007 18.462417 4.390603 53.202405 -167.408400 73.504812 14.327071 -23.358304 -54.236026 -11.961521 -33.786729 14.779730 -1.320776 7.657741 1.524836 -11.354452 
-152.685167 0.000000 285.257177 0.000000 39.741447 0.000000 1.641774 90.930893 -1.900222 97.670432 -0.920006 178.348703 169.298711 -2.347905 -177.647169 -42.101053 0.653453 -5.608816 73.714419 2.547365 -4.910181 21.454557 0.003087 -0.000001 -178.712528 4.104405 -179.629413 -15.124679 8.785236 -0.596101 76.838418 -1.299974 -5.341164 21.454560 -0.003101 -0.000016 8.550138 1.394603 1.013224 7.114562 2.724372 2.110651 6.796298 2.737200 2.094167 7.935987 2.949116 8.508794 -24.706389 1.734957 8.534823 -162.474394 -73.720598 -19.427699 13.017464 64.651782 40.298070 -23.521642 -13.504928 1.024515 20.639409 5.372209 59.852038 -166.387997 73.232410 15.375200 -22.255494 -54.279819 -13.102987 -33.089602 14.717770 -1.301300 7.923554 1.630958 -10.776700 
-153.150799 0.000000 285.725144 0.000000 40.631010 0.000000 1.677741 90.885064 -1.860551 97.725789 -0.708948 178.091887 170.313356 -2.392931 -176.877376 -43.854128 0.762314 -5.686420 74.392491 2.604525 -4.955866 21.454558 0.003087 -0.000001 -179.223316 3.951699 -179.246990 -15.579733 8.825250 -0.471688 76.784538 -1.387043 -5.332716 21.454560 -0.003108 -0.000017 8.538723 1.436246 1.026360 7.092944 2.806976 2.139240 6.774669 2.819973 2.122261 8.305819 3.464432 9.368692 -24.762954 1.355798 9.659247 -160.661266 -73.476678 -21.290436 15.730281 63.894683 43.155888 -24.110937 -13.611906 1.040461 21.781672 5.893879 65.261654 -165.779359 72.939767 16.001556 -21.042173 -54.255448 -14.277167 -32.299098 14.582881 -1.275613 8.252809 1.760882 -10.284548 
-153.619345 0.000000 286.189683 0.000000 41.606411 0.000000 1.724920 90.868408 -1.813415 97.801692 -0.579013 177.835882 171.496187 -2.432604 -176.261597 -45.269014 0.840462 -5.834226 74.968394 2.633903 -5.257235 21.454555 0.003091 0.000000 -179.661542 3.897096 -178.586443 -15.992422 8.795959 -0.450690 76.696029 -1.405293 -5.334867 21.454560 -0.003114 -0.000018 8.524323 1.456506 1.028661 7.064635 2.847590 2.144757 6.746354 2.860619 2.127533 8.729742 3.842228 10.152745 -24.758915 1.150057 10.609627 -158.711206 -73.342704 -23.292997 18.119220 63.115987 46.008787 -24.763075 -13.717202 1.056598 22.114829 6.264933 68.754903 -165.437563 72.654173 16.354313 -19.725413 -54.229835 -15.452756 -31.447614 14.382645 -1.245158 8.665370 1.891955 -9.919053 
-154.090960 0.000000 286.654044 0.000000 42.666839 0.000000 1.783904 90.887790 -1.759557 97.900265 -0.548542 177.583988 172.835758 -2.469661 -175.896799 -46.306679 0.857656 -6.076906 75.200095 2.741985 -5.493788 21.454548 0.003097 0.000000 179.996501 3.899730 -178.216183 -16.229201 8.739622 -0.191155 76.551207 -1.565509 -5.243268 21.454559 -0.003114 -0.000018 8.507884 1.451033 1.026547 7.031595 2.837107 2.139795 6.713311 2.850111 2.122628 9.165186 4.219624 10.854560 -24.682749 0.902876 11.488302 -156.897699 -73.272022 -25.154694 20.144652 62.395794 48.542520 -25.244402 -13.995589 1.081285 22.041628 6.735802 69.965399 -165.170047 72.391081 16.630859 -18.320021 -54.264869 -16.609781 -30.564646 14.139627 -1.211744 9.162927 2.000723 -9.700194 
-154.566641 0.000000 287.121326 0.000000 43.810820 0.000000 1.845176 90.918266 -1.699015 97.985086 -0.549288 177.376152 174.210218 -2.533001 -175.948323 -47.086162 0.985291 -6.463182 75.180007 3.001923 -5.531476 21.454545 0.003098 0.000000 179.680530 3.908204 -177.876376 -16.391742 8.629523 0.170661 76.381246 -1.780995 -5.094785 21.454558 -0.003109 -0.000017 8.480438 1.435832 1.021989 6.976263 2.807552 2.129084 6.657975 2.820494 2.112089 9.595407 4.605398 11.478160 -24.570588 0.605948 12.303541 -155.437290 -73.263515 -26.652911 21.774476 61.678826 50.378958 -25.612660 -14.236290 1.103131 21.618925 7.349515 69.075922 -164.870220 72.134307 16.940787 -16.810939 -54.354920 -17.754441 -29.673773 13.875276 -1.177402 9.569038 2.071189 -9.627430 
